<?xml version="1.0" standalone="no"?>
<!DOCTYPE svg PUBLIC "-//W3C//DTD SVG 20010904//EN"
 "http://www.w3.org/TR/2001/REC-SVG-20010904/DTD/svg10.dtd">
<svg version="1.0" xmlns="http://www.w3.org/2000/svg"
 width="497.000000pt" height="497.000000pt" viewBox="0 0 497.000000 497.000000"
 preserveAspectRatio="xMidYMid meet">
<metadata>
Created by potrace 1.14, written by Peter Selinger 2001-2017
</metadata>
<g transform="translate(0.000000,497.000000) scale(0.100000,-0.100000)"
fill="#000000" stroke="none">
<path d="M1873 4933 c-13 -2 -23 -9 -23 -15 0 -6 -3 -8 -6 -5 -4 4 -19 -2 -34
-13 -16 -11 -31 -20 -34 -20 -3 0 -14 -8 -25 -19 -14 -14 -32 -18 -80 -17 -33
1 -61 -2 -61 -6 0 -3 -9 -4 -20 -1 -11 3 -20 0 -20 -6 0 -5 -7 -8 -15 -5 -8 4
-22 1 -30 -6 -8 -7 -15 -9 -15 -4 0 5 -4 4 -8 -1 -4 -6 -24 -19 -44 -30 -21
-11 -38 -23 -38 -27 0 -5 -6 -8 -14 -8 -8 0 -16 -4 -18 -9 -1 -5 -10 -11 -18
-13 -19 -4 -70 -59 -64 -69 2 -4 0 -10 -5 -13 -5 -3 -8 -23 -6 -45 3 -32 -1
-41 -21 -51 -13 -8 -24 -17 -24 -22 0 -4 -7 -8 -15 -8 -8 0 -15 -4 -15 -10 0
-5 -7 -10 -15 -10 -8 0 -15 -4 -15 -10 0 -5 -7 -10 -15 -10 -8 0 -15 -4 -15
-10 0 -5 -6 -10 -14 -10 -7 0 -29 -13 -47 -30 -19 -16 -38 -28 -43 -27 -6 2
-18 -4 -28 -12 -37 -32 -55 -46 -74 -57 -10 -6 -26 -24 -34 -40 -8 -16 -19
-32 -23 -35 -4 -3 -8 -29 -9 -57 0 -45 7 -78 32 -147 21 -59 32 -92 35 -105 2
-8 4 -16 5 -17 2 -2 4 -7 5 -13 1 -5 4 -12 5 -15 1 -3 3 -8 4 -12 1 -5 5 -13
9 -20 4 -6 8 -23 9 -37 1 -14 6 -26 11 -26 4 0 6 -4 3 -8 -3 -5 1 -20 9 -35 8
-15 12 -27 9 -27 -3 0 10 -40 36 -105 4 -11 18 -54 31 -95 12 -41 27 -81 32
-87 5 -7 6 -13 2 -13 -4 0 -2 -6 4 -13 6 -8 8 -17 4 -20 -3 -4 -1 -13 6 -20 6
-8 12 -26 13 -41 1 -14 6 -26 10 -26 4 0 8 -11 8 -24 0 -14 5 -28 10 -31 6 -4
8 -11 5 -16 -4 -5 -2 -9 2 -9 5 0 9 -8 10 -17 1 -10 6 -37 12 -61 6 -24 8 -48
5 -54 -5 -7 -2 -8 5 -3 9 5 12 1 10 -11 -4 -29 19 -68 52 -86 16 -9 29 -13 29
-7 0 6 4 8 9 4 17 -10 -3 -67 -36 -102 -6 -7 -19 -31 -29 -53 -10 -22 -21 -40
-26 -40 -4 0 -8 -9 -8 -20 0 -11 -5 -20 -12 -20 -6 0 -9 -3 -5 -6 3 -4 -7 -26
-23 -50 -17 -23 -30 -47 -30 -52 0 -5 -7 -15 -15 -22 -8 -7 -12 -16 -9 -21 3
-5 0 -9 -6 -9 -6 0 -9 -4 -6 -8 3 -5 -4 -18 -14 -30 -11 -12 -20 -28 -20 -37
0 -8 -5 -15 -11 -15 -5 0 -7 -4 -4 -10 3 -5 1 -10 -4 -10 -6 0 -11 -7 -11 -15
0 -8 -5 -15 -12 -15 -6 0 -9 -3 -5 -6 6 -7 -49 -64 -63 -64 -4 0 -11 -6 -13
-12 -4 -10 -6 -10 -6 0 -1 7 -6 10 -11 7 -6 -3 -13 1 -16 9 -3 9 -15 16 -26
16 -10 0 -16 4 -13 10 3 6 0 10 -9 10 -8 0 -16 4 -18 8 -3 8 -133 83 -143 82
-3 0 -21 7 -41 15 -20 8 -42 15 -49 15 -6 0 -15 3 -19 7 -11 11 -45 13 -51 3
-3 -5 14 -31 39 -56 26 -25 46 -52 46 -60 0 -8 4 -14 9 -14 11 0 51 -66 51
-85 0 -7 7 -16 16 -19 9 -4 14 -9 11 -13 -4 -3 -1 -15 5 -27 7 -11 11 -24 10
-28 -1 -5 3 -8 10 -8 6 0 9 -3 5 -6 -3 -4 0 -19 9 -35 8 -16 12 -29 9 -29 -3
0 1 -13 10 -30 8 -16 16 -33 16 -37 1 -5 6 -19 11 -33 5 -14 11 -32 13 -41 4
-22 43 -97 66 -130 10 -14 16 -29 14 -33 -3 -3 -2 -4 1 -2 3 3 26 -18 50 -45
24 -27 44 -47 44 -43 0 4 8 -3 19 -14 10 -12 23 -22 28 -22 5 0 8 -12 6 -27
-18 -166 -18 -138 2 -265 6 -42 5 -47 -17 -54 -12 -4 -26 -7 -30 -6 -5 1 -8
-3 -8 -9 0 -5 -4 -8 -10 -4 -5 3 -17 1 -27 -4 -35 -20 -118 -54 -130 -54 -7 0
-13 -4 -13 -9 0 -5 -4 -6 -10 -3 -5 3 -10 1 -10 -6 0 -7 -3 -10 -6 -6 -4 3
-19 0 -34 -8 -15 -8 -30 -11 -34 -8 -3 4 -6 1 -6 -5 0 -7 -3 -11 -7 -10 -5 1
-30 -8 -58 -21 -27 -12 -58 -23 -68 -24 -9 -1 -17 -4 -17 -8 0 -4 -13 -9 -30
-13 l-30 -6 0 -605 0 -605 68 0 c47 0 75 5 93 18 66 44 87 59 122 94 21 21 40
38 42 38 7 0 28 -89 34 -142 1 -5 658 -8 1461 -8 1323 0 1460 1 1460 16 0 8
12 29 28 44 38 41 52 58 52 65 0 4 6 13 14 20 11 12 16 11 30 -3 80 -84 106
-109 110 -104 3 3 8 -3 12 -12 3 -9 10 -13 15 -10 5 3 9 0 9 -5 0 -8 66 -11
200 -11 l200 0 0 440 c0 306 -3 440 -11 440 -6 0 -17 7 -26 16 -9 8 -22 13
-29 10 -8 -3 -14 -1 -14 5 0 6 -4 8 -8 5 -4 -2 -14 -1 -22 4 -13 8 -13 14 3
41 26 46 22 77 -10 90 -16 7 -37 15 -48 20 -11 5 -27 10 -35 11 -8 2 -20 10
-27 18 -7 8 -13 11 -13 7 0 -4 -10 -2 -22 5 -13 7 -28 11 -35 10 -6 -1 -15 3
-19 9 -5 8 -3 10 7 4 11 -6 11 -5 2 5 -9 10 -8 21 5 49 9 20 19 38 22 41 3 3
7 14 8 25 2 11 7 22 11 25 5 3 12 19 16 35 5 17 9 33 10 38 2 4 3 8 5 10 2 3
7 24 15 62 3 17 8 38 11 47 11 38 29 190 26 223 -3 28 -13 93 -19 115 -3 14
-7 31 -9 39 -2 8 -6 26 -10 40 -4 14 -8 28 -8 31 -5 23 -52 136 -59 141 -5 3
-7 9 -5 12 4 9 -45 87 -55 87 -4 0 -5 4 -2 10 3 6 1 10 -6 10 -7 0 -10 3 -6 6
3 3 -5 18 -18 32 -60 68 -75 88 -75 100 0 6 -3 12 -7 12 -15 0 -68 55 -96 99
-16 24 -24 41 -19 37 5 -3 12 1 16 9 3 8 2 15 -2 15 -8 0 -6 219 2 228 3 3 1
11 -5 19 -6 7 -8 13 -3 13 7 0 10 72 4 90 -6 16 -4 88 3 102 5 11 4 18 -3 18
-5 0 -10 6 -10 14 0 11 -8 12 -41 4 -22 -6 -43 -17 -46 -24 -3 -8 -11 -14 -18
-14 -29 0 -132 -152 -135 -200 0 -8 -6 -25 -13 -37 -11 -19 -14 -20 -31 -8
-16 12 -18 32 -21 172 -2 87 -7 174 -10 193 -4 19 -8 47 -9 62 -1 15 -5 30 -9
34 -4 4 -7 25 -7 46 0 21 -3 38 -7 38 -5 0 -8 10 -9 23 -1 23 -7 51 -16 77
-11 29 -32 105 -33 115 0 6 -4 16 -9 24 -5 8 -10 30 -12 50 -7 91 -32 131 -94
147 -14 4 -31 11 -37 17 -7 5 -13 6 -13 2 0 -4 -11 4 -25 19 -14 15 -25 32
-25 37 0 6 -5 7 -12 3 -7 -4 -8 -3 -4 4 6 9 -76 102 -90 102 -3 0 -19 13 -37
30 -18 16 -36 30 -40 30 -5 0 -20 9 -34 20 -14 11 -30 17 -36 13 -6 -4 -8 0
-4 11 4 9 3 15 -2 11 -5 -3 -17 2 -25 11 -9 8 -16 12 -16 8 0 -4 -9 2 -20 14
-11 12 -20 29 -20 38 0 30 -23 93 -31 88 -5 -3 -9 1 -9 9 0 7 -11 20 -25 27
-13 7 -22 16 -20 20 3 4 -3 7 -13 6 -9 0 -16 5 -15 12 2 6 -3 12 -11 12 -7 0
-28 15 -47 32 -19 18 -56 53 -84 77 -104 90 -168 148 -221 198 -30 29 -54 50
-54 47 0 -2 -13 9 -30 26 -16 17 -30 29 -30 27 0 -2 -19 14 -43 37 -71 67
-170 156 -174 156 -2 0 -20 17 -41 38 -40 40 -106 77 -122 67 -6 -3 -10 -1
-10 4 0 11 -34 12 -77 4z"/>
</g>
</svg>
